<?xml version="1.0" encoding="utf-8"?>
<!-- Generator: Adobe Illustrator 20.1.0, SVG Export Plug-In . SVG Version: 6.00 Build 0)  -->
<svg version="1.1" id="Layer_1" xmlns="http://www.w3.org/2000/svg" xmlns:xlink="http://www.w3.org/1999/xlink" x="0px" y="0px"
     width="295.2px" height="277.2px" viewBox="0 0 295.2 277.2" enable-background="new 0 0 295.2 277.2" xml:space="preserve">
<g>
    <path d="M132,238.8c-2.7-6.4-6.2-14.5-10.6-24.4c-4.4-9.9-9.1-20.5-14.2-32c-5.1-11.5-10.5-23.3-16.2-35.4
        c-5.7-12.1-11.1-23.6-16.2-34.4c-5.1-10.8-9.8-20.5-14.2-29C56.2,75.1,52.7,68.5,50,64c-2.9,31.5-5.3,65.5-7.2,102.2
        c-1.9,36.7-3.5,73.7-4.8,111H0c1.1-24,2.3-48.2,3.6-72.6c1.3-24.4,2.9-48.4,4.6-72c1.7-23.6,3.6-46.6,5.6-69S18,20,20.4,0h34
        c7.2,11.7,14.9,25.6,23.2,41.6c8.3,16,16.5,32.7,24.8,50.2c8.3,17.5,16.3,34.9,24,52.4c7.7,17.5,14.8,33.4,21.2,47.8
        c6.4-14.4,13.5-30.3,21.2-47.8c7.7-17.5,15.7-34.9,24-52.4c8.3-17.5,16.5-34.2,24.8-50.2c8.3-16,16-29.9,23.2-41.6h34
        c9.1,89.3,15.9,181.7,20.4,277.2h-38c-1.3-37.3-2.9-74.3-4.8-111c-1.9-36.7-4.3-70.7-7.2-102.2c-2.7,4.5-6.2,11.1-10.6,19.6
        c-4.4,8.5-9.1,18.2-14.2,29c-5.1,10.8-10.5,22.3-16.2,34.4c-5.7,12.1-11.1,23.9-16.2,35.4c-5.1,11.5-9.8,22.1-14.2,32
        c-4.4,9.9-7.9,18-10.6,24.4L132,238.8L132,238.8z"/>
</g>
<g>
    <path d="M235.2,277.2c-4.5-12-8.8-23.8-12.8-35.4s-8.1-23.4-12.4-35.4H84.4l-25.2,70.8H18.8c10.7-29.3,20.7-56.5,30-81.4
        c9.3-24.9,18.5-48.6,27.4-71C85.1,102.4,94,81,102.8,60.6S120.8,20,130.4,0H166c9.6,20,18.8,40.2,27.6,60.6
        c8.8,20.4,17.7,41.8,26.6,64.2c8.9,22.4,18.1,46.1,27.4,71c9.3,24.9,19.3,52.1,30,81.4L235.2,277.2L235.2,277.2z M198.8,174.4
        c-8.5-23.2-17-45.7-25.4-67.4c-8.4-21.7-17.1-42.6-26.2-62.6c-9.3,20-18.2,40.9-26.6,62.6c-8.4,21.7-16.7,44.2-25,67.4H198.8
        L198.8,174.4z"/>
</g>
</svg>
